# xmcd CD database file
#
# Track frame offsets:
#	180
#	13903
#	34563
#	50592
#	67192
#	87688
#	110692
#	121364
#	147013
#	164499
#	190257
#	218498
#	244988
#
# Disc length: 3366 seconds
#
# Revision: 0
# Processed by: cddbd v1.5.2PL0 Copyright (c) Steve Scherf et al.
# Submitted via: CDex 1.70beta2
#
DISCID=c20d240d
DTITLE=The Grunting Roosters Blues Band - Bluesrünstig, so...
DYEAR=1998
DGENRE=Blues
TTITLE0=Take good care of yourself
TTITLE1=Stormy Monday
TTITLE2=Check up on my baby
TTITLE3=First I met the blues
TTITLE4=She`s 19 years old
TTITLE5=Have you heard
TTITLE6=Drink my wine
TTITLE7=After losing my money
TTITLE8=All your love
TTITLE9=Remember me
TTITLE10=Please, don`t go
TTITLE11=Riverside blues
TTITLE12=Bonus-Track
EXTD=YEAR: 1998
EXTT0=
EXTT1=
EXTT2=
EXTT3=
EXTT4=
EXTT5=
EXTT6=
EXTT7=
EXTT8=
EXTT9=
EXTT10=
EXTT11=
EXTT12=
PLAYORDER=
